<svg width="101" height="101" viewBox="0 0 101 101" fill="none" xmlns="http://www.w3.org/2000/svg">
<path d="M97.9 32.72L96.02 31.43L93.27 29.54L50.27 0L7.27002 29.54L4.62003 31.43L2.75003 32.72L0.0200195 34.61V66.05L2.77002 67.94L4.64001 69.22L7.39001 71.11L50.39 100.66L93.39 71.11L96.14 69.22L98 67.94L100.76 66.05V34.61L97.9 32.72ZM2.75003 49.04V36.5L7.37003 33.33L10.12 31.43L50.33 3.78001L90.53 31.43L93.29 33.33L97.9 36.5V45.26L93.29 48.43L90.53 50.32L79.53 57.87L76.78 59.77L50.31 77.97L23.84 59.77L34.84 52.21L50.33 62.86L65.81 52.21L68.56 50.32L79.56 42.76L82.31 40.87L79.56 38.98L50.34 18.88L21.12 38.98L18.37 40.87L7.37003 48.43L4.62003 50.32L2.75003 51.6V49.04ZM37.6 50.33L50.33 41.57L63.02 50.33L50.29 59.08L37.6 50.33ZM97.9 51.61V64.15L93.29 67.33L90.53 69.22L50.33 96.87L10.12 69.22L7.37003 67.33L2.75003 64.15V55.43L7.37003 52.25L10.12 50.36L21.12 42.8L23.87 40.91L50.34 22.71L76.81 40.91L65.81 48.47L50.33 37.82L34.84 48.43L32.09 50.32L21.09 57.87L18.34 59.77L21.09 61.66L50.31 81.75L79.53 61.66L82.28 59.77L93.28 52.21L96.02 50.33L97.88 49.04L97.9 51.61Z" fill="white"/>
</svg>
